<?xml version="1.0" encoding="utf-8"?>
<!-- Generator: Adobe Illustrator 24.0.2, SVG Export Plug-In . SVG Version: 6.00 Build 0)  -->
<svg version="1.1" id="Layer_1" xmlns="http://www.w3.org/2000/svg" xmlns:xlink="http://www.w3.org/1999/xlink" x="0px" y="0px"
	 viewBox="0 0 200.8 96" style="enable-background:new 0 0 200.8 96;" xml:space="preserve">
<path id="Path_1" d="M188.1,0l-14.5,89.5c-0.1,0.8-0.4,1.2-1.1,1.2c-0.8,0-1.1-0.4-1.2-1.2c0,0-14.8-87-15-88c0-0.8-0.7-1.4-1.5-1.4
	c-0.8,0-21.6,0-22.5,0c-0.8,0-1.5,0.6-1.6,1.4c-0.1,0.8-15,88-15,88c-0.1,0.8-0.4,1.2-1.2,1.2c-0.7,0-0.9-0.4-1.1-1.2
	c0,0-14.1-86.9-14.3-87.8C99.1,0.5,98.5,0,97.2,0H73.6L58.3,90.4c-0.1,0.8-0.5,0.9-1.1,0.9s-0.9-0.1-1.1-0.9L40.8,0H17.3
	c-1-0.1-1.9,0.6-2,1.6c0,0,0,0.1,0,0.1C15.1,2.9,0,93.3,0,93.3V96h12.7L27.2,6.5c0.1-0.8,0.4-1.2,1.1-1.2c0.8,0,1.1,0.4,1.2,1.2
	c0,0,14.3,84.6,14.7,86.4c0.3,1.7,1.7,3,3.4,3.1h18.9c2.1,0,3.3-0.9,3.7-2.9c0.4-2,14.7-86.6,14.7-86.6c0.1-0.8,0.4-1.2,1.2-1.2
	c0.7,0,0.9,0.4,1.1,1.2c0,0,14.1,86.7,14.3,87.7c0.1,0.9,0.8,1.7,1.8,1.7h24l15.3-90.4c0.1-0.8,0.5-0.9,1.1-0.9s0.9,0.1,1.1,0.9
	L160,96h23.4c1,0.1,1.9-0.6,2-1.7c0,0,0,0,0-0.1l15.3-91.6V0H188.1z"/>
</svg>
